<svg id="svg" version="1.1" xmlns="http://www.w3.org/2000/svg" xmlns:xlink="http://www.w3.org/1999/xlink" width="400" height="400" viewBox="0, 0, 400,400"><g id="svgg"><path id="path0" d="M222.964 82.638 C 221.984 83.169,215.399 91.530,207.439 102.347 C 200.984 111.120,192.789 122.121,190.129 125.586 C 188.645 127.520,185.863 131.211,183.947 133.789 C 182.031 136.367,179.705 139.443,178.779 140.625 C 177.853 141.807,175.163 145.322,172.802 148.438 C 170.440 151.553,166.509 156.738,164.066 159.961 C 161.622 163.184,158.813 166.875,157.823 168.164 C 156.832 169.453,154.363 172.705,152.336 175.391 C 150.309 178.076,148.548 180.361,148.422 180.469 C 148.233 180.630,139.920 191.658,131.078 203.476 C 126.867 209.105,126.543 210.127,128.285 212.305 L 129.223 213.477 164.188 213.672 C 183.419 213.779,199.264 213.977,199.398 214.112 C 200.341 215.055,199.987 217.326,197.943 223.466 C 196.008 229.279,190.997 244.780,188.987 251.172 C 188.548 252.568,187.520 255.557,186.702 257.813 C 185.885 260.068,184.397 264.551,183.396 267.773 C 182.394 270.996,181.333 274.336,181.038 275.195 C 180.742 276.055,180.334 277.373,180.130 278.125 C 179.431 280.709,175.807 292.391,173.647 299.023 C 171.136 306.731,171.166 306.472,172.543 308.751 C 175.231 313.202,174.038 314.492,200.195 278.864 C 202.773 275.352,206.914 269.751,209.397 266.415 C 211.880 263.080,214.517 259.473,215.257 258.398 C 215.996 257.324,217.578 255.215,218.772 253.711 C 219.966 252.207,222.602 248.715,224.631 245.951 C 234.298 232.782,236.476 229.881,238.965 226.858 C 239.664 226.009,241.322 223.794,242.650 221.935 C 250.082 211.533,259.613 198.722,267.751 188.198 C 276.996 176.244,277.633 174.309,272.777 172.931 C 270.773 172.363,266.829 172.272,238.999 172.158 C 212.678 172.049,207.382 171.938,206.831 171.480 C 205.801 170.626,206.316 167.798,209.960 154.297 C 210.743 151.396,211.814 147.354,212.342 145.313 C 212.869 143.271,213.560 140.723,213.878 139.648 C 214.196 138.574,215.497 133.828,216.770 129.102 C 218.995 120.837,222.239 109.278,223.018 106.836 C 224.788 101.287,228.238 87.999,228.406 86.085 C 228.727 82.408,226.263 80.847,222.964 82.638 " stroke="none" fill="#fad75e" fill-rule="evenodd"></path><path id="path1" d="M196.673 25.152 C 196.265 25.450,195.721 25.614,195.464 25.515 C 194.881 25.291,192.305 26.591,189.699 28.422 C 188.607 29.190,187.490 29.818,187.216 29.818 C 186.943 29.818,186.719 29.945,186.719 30.101 C 186.719 30.257,186.279 30.494,185.742 30.629 C 185.205 30.764,184.766 31.047,184.766 31.257 C 184.766 31.468,184.546 31.641,184.277 31.641 C 183.745 31.641,175.758 36.525,175.410 37.063 C 175.292 37.246,174.794 37.520,174.303 37.673 C 173.813 37.826,173.040 38.333,172.586 38.800 C 172.132 39.267,171.877 39.440,172.020 39.185 C 172.163 38.931,170.915 39.538,169.246 40.535 C 167.577 41.533,166.152 42.488,166.081 42.659 C 166.009 42.829,165.798 42.969,165.612 42.969 C 165.426 42.969,164.492 43.496,163.537 44.141 C 162.582 44.785,161.650 45.316,161.467 45.320 C 161.178 45.326,158.377 47.058,157.227 47.942 C 157.012 48.107,155.869 48.756,154.688 49.383 C 153.506 50.011,152.451 50.628,152.344 50.754 C 152.236 50.881,151.489 51.330,150.684 51.753 C 149.878 52.176,149.219 52.657,149.219 52.823 C 149.219 52.989,148.955 53.125,148.633 53.125 C 148.311 53.125,147.695 53.477,147.266 53.906 C 146.836 54.336,146.484 54.591,146.484 54.472 C 146.484 54.354,145.896 54.706,145.178 55.254 C 144.459 55.802,143.668 56.250,143.420 56.250 C 143.172 56.250,142.969 56.426,142.969 56.641 C 142.969 56.855,142.796 57.031,142.584 57.031 C 142.088 57.031,138.127 59.442,137.956 59.848 C 137.884 60.017,137.489 60.156,137.077 60.156 C 136.665 60.156,136.328 60.290,136.328 60.454 C 136.328 60.759,136.207 60.835,133.073 62.480 C 132.070 63.006,131.250 63.588,131.250 63.773 C 131.250 63.957,131.074 64.000,130.859 63.867 C 130.645 63.734,130.469 63.772,130.469 63.951 C 130.469 64.129,129.810 64.621,129.004 65.044 C 128.198 65.467,127.398 66.034,127.227 66.305 C 127.055 66.575,126.686 66.797,126.408 66.797 C 126.129 66.797,125.500 67.145,125.009 67.570 C 124.519 67.995,123.983 68.260,123.819 68.158 C 123.654 68.056,123.419 68.236,123.295 68.557 C 123.172 68.878,122.816 69.141,122.505 69.141 C 121.798 69.141,119.537 70.404,119.534 70.801 C 119.532 70.962,119.345 71.094,119.118 71.094 C 118.890 71.094,118.055 71.599,117.262 72.216 C 116.469 72.833,115.249 73.579,114.551 73.874 C 113.853 74.168,113.281 74.521,113.281 74.657 C 113.281 74.794,112.718 75.139,112.028 75.424 C 111.339 75.710,110.454 76.265,110.061 76.658 C 109.668 77.051,109.150 77.251,108.910 77.102 C 108.656 76.946,108.582 77.008,108.732 77.252 C 108.885 77.500,108.512 77.776,107.818 77.928 C 107.173 78.070,106.474 78.480,106.264 78.839 C 106.055 79.198,105.875 79.316,105.865 79.102 C 105.853 78.841,105.752 78.841,105.560 79.102 C 105.403 79.316,104.443 79.926,103.427 80.455 C 102.412 80.985,101.490 81.656,101.379 81.945 C 101.268 82.235,101.000 82.362,100.784 82.228 C 100.568 82.095,100.391 82.182,100.391 82.422 C 100.391 82.662,100.233 82.761,100.041 82.642 C 99.849 82.524,99.590 82.689,99.467 83.010 C 99.344 83.331,99.032 83.594,98.773 83.594 C 98.515 83.594,97.952 83.901,97.522 84.277 C 96.961 84.768,96.834 84.796,97.070 84.375 C 97.454 83.693,95.684 85.076,95.195 85.840 C 95.024 86.108,94.610 86.328,94.275 86.328 C 93.941 86.328,93.115 86.795,92.439 87.365 C 91.764 87.936,90.420 88.783,89.453 89.249 C 86.943 90.457,85.162 91.554,85.159 91.895 C 85.157 92.056,84.989 92.188,84.785 92.188 C 84.581 92.187,83.633 92.715,82.678 93.359 C 81.723 94.004,80.659 94.531,80.314 94.531 C 79.970 94.531,79.688 94.703,79.688 94.914 C 79.688 95.453,75.715 97.662,75.257 97.378 C 75.049 97.250,74.989 97.322,75.123 97.539 C 75.257 97.755,74.922 98.135,74.380 98.382 C 73.792 98.650,73.506 99.013,73.671 99.281 C 73.842 99.557,73.777 99.624,73.503 99.455 C 73.258 99.303,72.293 99.627,71.359 100.175 C 70.425 100.723,69.515 101.039,69.338 100.878 C 69.160 100.717,69.142 100.806,69.296 101.074 C 69.549 101.513,69.107 101.742,68.262 101.609 C 68.101 101.583,67.969 101.718,67.969 101.908 C 67.969 102.098,65.692 103.608,62.909 105.262 C 57.960 108.205,54.212 111.311,53.713 112.884 C 53.575 113.318,53.293 113.672,53.085 113.672 C 52.862 113.672,52.889 114.011,53.150 114.500 C 53.462 115.082,53.466 115.250,53.164 115.063 C 52.741 114.802,52.551 115.503,52.668 116.895 C 52.699 117.271,52.551 117.578,52.339 117.578 C 52.086 117.578,51.986 143.804,52.049 193.848 L 52.145 270.117 52.344 210.156 C 52.453 177.178,52.601 153.623,52.671 157.813 C 52.742 162.002,52.877 173.867,52.972 184.180 C 53.080 195.844,53.289 202.979,53.526 203.060 C 54.027 203.231,54.019 204.297,53.516 204.297 C 53.301 204.297,53.131 204.604,53.138 204.980 C 53.152 205.699,54.383 204.542,54.807 203.413 C 55.082 202.681,56.223 204.302,56.238 205.446 C 56.249 206.348,56.221 206.360,55.715 205.668 C 55.198 204.961,55.167 204.964,54.735 205.771 C 54.249 206.678,56.103 206.791,57.156 205.918 C 57.448 205.677,58.696 205.662,60.547 205.876 C 62.158 206.063,63.740 206.229,64.063 206.245 C 64.514 206.268,64.474 206.407,63.890 206.848 C 62.924 207.579,62.500 207.575,62.500 206.836 C 62.500 206.514,62.324 206.250,62.109 206.250 C 61.895 206.250,61.719 206.953,61.719 207.813 C 61.719 208.672,61.895 209.375,62.109 209.375 C 62.324 209.375,62.500 209.199,62.500 208.984 C 62.500 208.770,63.027 208.594,63.672 208.594 C 64.477 208.594,64.844 208.402,64.844 207.980 C 64.844 206.982,65.758 206.357,67.454 206.195 C 68.622 206.084,68.995 206.175,68.856 206.537 C 68.752 206.809,68.398 207.031,68.069 207.031 C 67.583 207.031,67.518 207.369,67.720 208.844 C 67.857 209.840,67.969 211.071,67.969 211.578 C 67.969 213.232,68.748 212.547,68.809 210.840 L 68.867 209.180 69.125 210.938 C 69.317 212.253,69.461 212.522,69.696 212.005 C 69.869 211.626,69.927 210.879,69.825 210.345 C 69.723 209.812,69.791 209.375,69.976 209.375 C 70.161 209.375,70.337 210.825,70.368 212.598 C 70.411 215.118,70.481 215.480,70.687 214.258 C 71.211 211.148,71.518 219.026,71.693 240.039 C 71.788 251.426,71.963 261.312,72.083 262.009 C 72.202 262.705,72.248 263.321,72.185 263.377 C 72.122 263.433,72.887 264.648,73.886 266.076 C 75.050 267.742,75.576 268.827,75.351 269.102 C 75.110 269.397,75.142 269.413,75.456 269.154 C 75.768 268.895,76.369 269.171,77.369 270.033 C 78.170 270.724,80.936 272.520,83.514 274.023 C 86.092 275.527,88.104 276.917,87.986 277.111 C 87.867 277.305,87.962 277.346,88.197 277.200 C 88.646 276.923,91.155 278.246,90.819 278.582 C 90.712 278.689,90.846 278.776,91.116 278.776 C 91.385 278.776,92.369 279.257,93.301 279.846 C 94.233 280.434,95.060 280.852,95.138 280.774 C 95.306 280.605,90.863 277.832,83.617 273.585 C 77.934 270.254,74.849 267.515,73.332 264.453 L 72.461 262.695 72.461 194.922 L 72.461 127.148 73.554 125.073 C 75.169 122.007,77.629 119.900,83.966 116.154 C 87.091 114.307,91.582 111.609,93.945 110.158 C 98.875 107.132,100.934 105.899,135.352 85.362 C 149.316 77.029,163.115 68.764,166.016 66.995 C 196.255 48.549,198.372 47.548,204.161 48.955 C 205.675 49.323,210.810 52.209,219.922 57.814 C 233.008 65.864,239.582 69.854,243.750 72.274 C 246.221 73.709,251.143 76.694,254.688 78.906 C 258.232 81.119,263.682 84.466,266.797 86.343 C 273.485 90.373,289.183 99.872,300.280 106.601 C 304.916 109.413,308.368 111.272,308.641 111.104 C 308.918 110.932,309.002 110.983,308.849 111.231 C 308.541 111.730,311.952 113.815,312.512 113.469 C 312.727 113.336,312.803 113.066,312.681 112.868 C 312.559 112.671,312.719 112.608,313.035 112.730 C 313.688 112.980,314.221 114.063,313.692 114.063 C 313.502 114.063,313.276 113.851,313.190 113.593 C 313.082 113.270,312.953 113.255,312.773 113.545 C 312.618 113.797,314.359 115.048,317.096 116.651 C 323.779 120.566,327.601 125.016,327.787 129.102 C 327.827 129.972,327.883 130.055,328.006 129.425 C 328.097 128.958,327.954 127.815,327.689 126.886 C 327.423 125.956,327.237 125.063,327.275 124.902 C 327.313 124.741,327.172 124.609,326.963 124.609 C 326.444 124.609,325.353 122.433,325.699 122.087 C 325.852 121.935,325.713 121.868,325.391 121.940 C 325.068 122.012,324.849 121.851,324.902 121.582 C 324.956 121.313,324.868 121.138,324.707 121.191 C 324.546 121.245,324.414 121.176,324.414 121.037 C 324.414 120.593,322.952 119.153,322.676 119.324 C 322.529 119.415,321.630 118.972,320.677 118.340 C 319.725 117.708,319.121 117.185,319.336 117.177 C 319.551 117.169,319.402 116.917,319.005 116.616 C 318.608 116.315,318.035 116.165,317.731 116.281 C 317.348 116.428,317.253 116.300,317.420 115.864 C 317.557 115.507,317.465 115.234,317.206 115.234 C 316.956 115.234,316.862 115.454,316.998 115.723 C 317.134 115.991,316.980 115.886,316.657 115.488 C 316.333 115.091,315.918 114.858,315.735 114.971 C 315.552 115.084,315.402 114.594,315.402 113.881 L 315.402 112.585 317.076 113.957 C 318.359 115.008,318.750 115.175,318.750 114.672 C 318.750 114.312,318.574 114.125,318.359 114.258 C 318.145 114.391,317.969 114.225,317.969 113.890 C 317.969 113.555,317.793 113.281,317.578 113.281 C 317.363 113.281,317.188 113.105,317.188 112.891 C 317.188 112.676,317.451 112.500,317.773 112.500 C 318.096 112.500,318.359 112.676,318.359 112.891 C 318.359 113.105,318.623 113.281,318.945 113.281 C 319.271 113.281,319.531 112.934,319.531 112.500 C 319.531 111.574,319.547 111.571,320.839 112.241 C 321.640 112.656,321.749 112.866,321.372 113.266 C 320.997 113.665,321.020 113.731,321.484 113.583 C 321.928 113.442,322.040 112.909,321.945 111.386 C 321.860 110.028,321.969 109.375,322.281 109.375 C 322.596 109.375,322.663 108.948,322.492 108.038 C 322.355 107.303,322.404 106.601,322.603 106.478 C 323.040 106.208,323.437 107.138,323.438 108.430 C 323.438 109.010,323.664 109.375,324.023 109.375 C 324.346 109.375,324.609 109.580,324.609 109.831 C 324.609 110.081,324.712 110.184,324.836 110.059 C 324.961 109.935,324.869 109.470,324.632 109.026 C 324.131 108.091,324.514 105.854,325.030 106.690 C 325.205 106.973,325.469 107.083,325.616 106.936 C 326.200 106.352,327.424 107.480,327.242 108.433 C 327.123 109.055,327.242 109.375,327.593 109.375 C 327.953 109.375,328.125 108.870,328.125 107.813 C 328.125 106.953,328.280 106.250,328.470 106.250 C 329.550 106.250,328.642 103.695,327.434 103.337 C 326.740 103.132,326.172 102.824,326.172 102.654 C 326.172 102.173,327.654 102.289,327.966 102.794 C 328.344 103.405,329.317 102.069,329.033 101.329 C 328.908 101.004,329.069 100.781,329.427 100.781 C 330.215 100.781,330.615 101.439,329.983 101.694 C 329.593 101.851,329.592 101.898,329.980 101.922 C 330.249 101.939,330.469 102.139,330.469 102.367 C 330.469 102.594,330.266 102.655,330.018 102.502 C 329.736 102.328,329.673 102.395,329.849 102.680 C 330.005 102.932,330.296 103.037,330.496 102.913 C 330.696 102.789,330.859 102.889,330.859 103.134 C 330.859 103.380,331.079 103.501,331.348 103.404 C 331.616 103.307,332.151 103.502,332.536 103.838 C 333.176 104.395,333.215 104.391,332.983 103.787 C 332.838 103.410,332.915 103.125,333.161 103.125 C 333.399 103.125,333.594 103.311,333.594 103.539 C 333.594 103.766,333.757 103.851,333.957 103.728 C 334.157 103.604,334.423 103.668,334.548 103.870 C 334.673 104.072,334.553 104.313,334.282 104.406 C 334.011 104.498,334.160 104.514,334.614 104.441 C 335.270 104.336,335.418 104.490,335.341 105.198 C 335.262 105.915,335.442 106.094,336.274 106.125 C 336.841 106.146,337.012 106.085,336.654 105.989 C 335.992 105.812,335.320 104.688,335.876 104.688 C 336.441 104.688,337.865 106.251,337.746 106.741 C 337.681 107.008,337.702 107.094,337.793 106.931 C 337.883 106.769,338.103 106.726,338.280 106.835 C 338.458 106.945,338.559 106.736,338.506 106.371 C 338.452 106.005,338.203 105.638,337.952 105.554 C 337.701 105.471,337.612 105.197,337.756 104.947 C 337.899 104.697,337.882 104.612,337.719 104.759 C 337.343 105.096,334.751 103.758,333.456 102.558 C 332.914 102.056,332.409 101.705,332.335 101.780 C 332.035 102.080,326.950 98.569,327.233 98.257 C 327.401 98.073,327.312 98.053,327.034 98.213 C 326.756 98.374,326.280 98.299,325.977 98.047 C 325.673 97.795,325.197 97.726,324.919 97.893 C 324.520 98.133,324.511 98.076,324.881 97.620 C 325.261 97.150,325.211 97.042,324.616 97.042 C 324.214 97.042,323.989 97.210,324.116 97.416 C 324.248 97.628,324.067 97.682,323.697 97.540 C 323.326 97.397,323.047 97.480,323.047 97.734 C 323.047 97.978,322.934 98.064,322.796 97.926 C 322.658 97.788,322.763 97.412,323.030 97.091 C 323.421 96.620,323.399 96.390,322.918 95.909 C 322.115 95.106,321.200 95.085,321.864 95.885 C 322.126 96.200,322.249 96.684,322.138 96.960 C 322.005 97.292,321.926 97.245,321.906 96.819 C 321.889 96.466,321.572 96.061,321.202 95.919 C 320.623 95.697,320.609 95.606,321.105 95.262 C 321.527 94.968,321.554 94.811,321.204 94.669 C 320.943 94.562,320.100 94.048,319.331 93.526 C 318.563 93.005,317.790 92.578,317.613 92.578 C 317.437 92.578,316.830 92.214,316.264 91.769 C 315.698 91.323,315.229 91.104,315.222 91.280 C 315.216 91.457,315.029 91.290,314.808 90.910 C 314.586 90.529,314.240 90.320,314.038 90.445 C 313.837 90.569,313.672 90.485,313.672 90.257 C 313.672 90.030,313.310 89.844,312.868 89.844 C 312.359 89.844,312.166 90.010,312.342 90.295 C 312.516 90.576,312.449 90.640,312.163 90.463 C 311.912 90.308,311.785 90.052,311.882 89.896 C 312.157 89.450,311.645 88.900,310.059 87.936 C 308.733 87.130,308.418 87.138,308.543 87.974 C 308.566 88.128,308.288 88.139,307.925 88.000 C 307.511 87.841,307.440 87.689,307.735 87.591 C 308.403 87.368,308.315 86.719,307.617 86.719 C 307.295 86.719,307.031 86.543,307.031 86.328 C 307.031 86.113,306.843 85.938,306.613 85.938 C 306.383 85.938,305.929 85.672,305.605 85.348 C 305.280 85.024,304.877 84.844,304.708 84.948 C 304.539 85.052,304.087 84.790,303.703 84.366 C 303.318 83.941,302.879 83.594,302.726 83.594 C 302.572 83.594,301.292 82.847,299.879 81.934 C 295.381 79.025,294.490 78.516,293.906 78.516 C 293.592 78.516,293.234 78.252,293.110 77.930 C 292.986 77.607,292.737 77.344,292.556 77.344 C 292.375 77.344,291.471 76.841,290.547 76.226 C 289.623 75.611,288.077 74.688,287.110 74.175 C 286.144 73.662,285.265 73.140,285.157 73.015 C 284.758 72.554,265.280 60.938,264.906 60.938 C 264.693 60.938,264.460 60.793,264.388 60.617 C 264.233 60.233,258.857 56.951,234.766 42.529 C 224.775 36.549,215.635 31.053,214.453 30.316 C 206.543 25.384,199.252 23.266,196.673 25.152 M326.599 98.848 C 327.021 99.073,327.244 99.455,327.095 99.695 C 326.925 99.971,327.042 100.049,327.413 99.907 C 327.736 99.783,328.248 99.838,328.551 100.030 C 328.905 100.254,328.935 100.381,328.636 100.385 C 328.375 100.388,328.239 100.749,328.327 101.207 C 328.538 102.302,327.535 101.504,326.720 99.927 C 326.152 98.829,326.138 98.825,324.890 99.458 L 323.633 100.095 324.414 99.289 C 325.328 98.347,325.572 98.298,326.599 98.848 M294.804 102.034 C 294.145 102.453,293.750 102.414,293.750 101.930 C 293.750 101.703,293.926 101.625,294.141 101.758 C 294.355 101.891,294.534 101.681,294.537 101.293 C 294.542 100.704,294.604 100.682,294.907 101.162 C 295.147 101.541,295.112 101.838,294.804 102.034 M331.250 101.976 C 331.250 102.204,331.406 102.294,331.596 102.176 C 331.787 102.058,332.182 102.267,332.475 102.641 C 332.950 103.247,332.938 103.266,332.362 102.816 C 331.942 102.487,331.669 102.455,331.580 102.722 C 331.504 102.948,331.222 102.779,330.952 102.348 C 330.663 101.884,330.623 101.563,330.856 101.563 C 331.073 101.563,331.250 101.749,331.250 101.976 M328.117 105.788 C 328.128 106.468,326.731 106.028,325.743 105.040 C 324.288 103.585,324.860 102.975,326.554 104.174 C 327.409 104.779,328.112 105.505,328.117 105.788 M303.387 106.509 C 303.043 106.852,305.486 109.020,305.916 108.754 C 306.100 108.640,306.250 108.636,306.250 108.743 C 306.250 109.464,305.310 109.211,304.126 108.172 C 302.930 107.122,302.604 106.250,303.408 106.250 C 303.539 106.250,303.529 106.367,303.387 106.509 M339.279 106.675 C 339.728 107.401,340.958 107.831,341.248 107.363 C 341.421 107.082,341.356 107.016,341.076 107.189 C 340.828 107.343,340.625 107.302,340.625 107.100 C 340.625 106.897,340.273 106.640,339.843 106.527 C 339.413 106.415,339.159 106.481,339.279 106.675 M308.203 110.073 C 309.073 110.451,309.092 110.500,308.375 110.522 C 307.933 110.536,307.230 110.294,306.813 109.986 C 305.949 109.347,306.627 109.389,308.203 110.073 M310.771 109.718 C 310.655 109.907,310.997 110.500,311.533 111.035 C 312.448 111.951,312.465 112.041,311.819 112.547 C 311.200 113.033,311.184 113.021,311.656 112.418 C 312.116 111.831,312.053 111.719,311.130 111.488 C 310.455 111.318,310.249 111.122,310.551 110.935 C 310.893 110.724,310.901 110.571,310.582 110.373 C 310.179 110.124,310.334 109.375,310.788 109.375 C 310.896 109.375,310.888 109.530,310.771 109.718 M314.648 113.281 C 314.516 113.496,314.564 113.672,314.756 113.672 C 314.947 113.672,315.104 113.940,315.104 114.269 C 315.104 115.015,314.267 114.786,314.232 114.030 C 314.203 113.397,314.409 112.891,314.695 112.891 C 314.802 112.891,314.781 113.066,314.648 113.281 M347.846 174.023 C 347.846 204.746,347.893 217.372,347.949 202.081 C 348.006 186.791,348.006 161.654,347.949 146.222 C 347.893 130.790,347.846 143.301,347.846 174.023 M52.636 143.262 C 52.572 147.075,52.520 143.955,52.520 136.328 C 52.520 128.701,52.572 125.581,52.636 129.395 C 52.700 133.208,52.700 139.448,52.636 143.262 M327.765 135.817 C 327.748 136.717,327.873 137.540,328.043 137.645 C 328.213 137.750,328.288 137.189,328.210 136.398 C 327.997 134.237,327.800 133.979,327.765 135.817 M69.807 202.441 C 69.714 202.925,69.638 202.529,69.638 201.563 C 69.638 200.596,69.714 200.200,69.807 200.684 C 69.900 201.167,69.900 201.958,69.807 202.441 M61.816 203.401 C 61.333 203.494,60.542 203.494,60.059 203.401 C 59.575 203.308,59.971 203.231,60.938 203.231 C 61.904 203.231,62.300 203.308,61.816 203.401 M65.625 208.571 C 65.625 209.013,65.801 209.375,66.016 209.375 C 66.230 209.375,66.406 209.122,66.406 208.812 C 66.406 208.503,66.230 208.141,66.016 208.008 C 65.801 207.875,65.625 208.128,65.625 208.571 M71.106 211.816 C 70.817 212.534,70.753 212.373,70.753 210.938 C 70.753 209.502,70.817 209.341,71.106 210.059 C 71.317 210.583,71.317 211.292,71.106 211.816 M65.625 210.938 C 65.625 211.372,65.885 211.719,66.211 211.719 C 66.536 211.719,66.797 211.372,66.797 210.938 C 66.797 210.503,66.536 210.156,66.211 210.156 C 65.885 210.156,65.625 210.503,65.625 210.938 M68.171 213.661 C 68.042 213.870,68.221 214.476,68.570 215.007 C 68.921 215.543,69.172 216.637,69.134 217.460 C 69.019 219.921,69.049 219.998,69.922 219.531 C 70.436 219.256,70.685 218.750,70.650 218.053 C 70.604 217.132,70.574 217.108,70.427 217.871 C 70.068 219.736,69.531 218.624,69.531 216.016 C 69.531 213.388,68.955 212.392,68.171 213.661 M347.802 234.570 C 347.803 236.934,347.868 237.850,347.945 236.607 C 348.023 235.364,348.022 233.430,347.944 232.310 C 347.865 231.190,347.801 232.207,347.802 234.570 M347.747 241.016 C 347.747 241.768,347.827 242.075,347.926 241.699 C 348.024 241.323,348.024 240.708,347.926 240.332 C 347.827 239.956,347.747 240.264,347.747 241.016 M347.788 245.313 C 347.788 246.924,347.857 247.583,347.941 246.777 C 348.025 245.972,348.025 244.653,347.941 243.848 C 347.857 243.042,347.788 243.701,347.788 245.313 M99.414 283.409 C 99.844 283.758,100.723 284.303,101.367 284.619 C 102.463 285.157,102.488 285.153,101.758 284.559 C 101.328 284.210,100.449 283.666,99.805 283.350 C 98.709 282.812,98.683 282.816,99.414 283.409 M104.463 286.281 C 104.586 286.481,105.610 287.167,106.738 287.805 C 107.866 288.444,109.492 289.369,110.352 289.861 C 111.211 290.353,111.738 290.574,111.523 290.351 C 110.935 289.742,104.203 285.861,104.463 286.281 M114.648 292.390 C 115.078 292.740,115.781 293.199,116.211 293.410 L 116.992 293.793 116.211 293.157 C 115.781 292.807,115.078 292.348,114.648 292.137 L 113.867 291.754 114.648 292.390 M121.094 296.221 C 121.094 296.317,122.368 297.142,123.926 298.055 C 125.483 298.967,127.329 300.056,128.027 300.475 C 128.726 300.893,129.297 301.144,129.297 301.031 C 129.297 300.876,124.605 298.018,121.387 296.212 C 121.226 296.122,121.094 296.126,121.094 296.221 M129.860 301.526 C 130.007 301.764,130.688 302.230,131.372 302.561 C 132.528 303.120,132.561 303.117,131.836 302.529 C 130.649 301.567,129.537 301.002,129.860 301.526 M140.820 308.096 C 141.035 308.301,141.914 308.864,142.773 309.346 C 143.633 309.829,143.984 309.931,143.555 309.574 C 142.682 308.849,140.207 307.511,140.820 308.096 " stroke="none" fill="#0c9cf7" fill-rule="evenodd"></path><path id="path2" d="M197.070 49.178 C 195.996 49.570,194.414 50.300,193.555 50.800 C 187.817 54.142,170.714 64.319,167.969 66.025 C 166.143 67.160,163.682 68.649,162.500 69.335 C 157.129 72.451,137.699 84.058,133.398 86.718 C 132.109 87.516,125.781 91.299,119.336 95.125 C 112.891 98.951,104.277 104.102,100.195 106.573 C 96.113 109.043,89.550 112.984,85.611 115.329 C 78.102 119.801,75.890 121.490,74.348 123.932 C 72.159 127.400,72.246 124.275,72.358 195.930 L 72.461 261.914 73.495 264.120 C 75.175 267.702,77.565 269.759,85.547 274.493 C 89.521 276.849,95.113 280.213,97.971 281.967 C 100.830 283.721,103.234 285.156,103.314 285.156 C 103.394 285.156,108.789 288.345,115.304 292.242 C 121.818 296.139,127.773 299.699,128.537 300.152 C 129.301 300.606,136.860 305.129,145.334 310.205 C 159.170 318.492,166.288 322.698,186.811 334.717 C 200.950 342.998,200.203 343.051,217.789 332.503 C 231.807 324.095,236.481 321.274,240.234 318.954 C 242.061 317.825,248.301 314.131,254.102 310.746 C 259.902 307.361,266.758 303.320,269.336 301.767 C 274.238 298.814,291.534 288.550,304.883 280.673 C 322.776 270.113,323.152 269.855,325.391 266.601 C 327.892 262.966,327.754 267.417,327.641 194.318 L 327.539 127.930 326.292 125.391 C 324.375 121.485,322.739 120.236,308.008 111.420 C 300.488 106.921,289.766 100.460,284.180 97.064 C 278.594 93.667,270.771 88.920,266.797 86.515 C 262.822 84.110,258.076 81.210,256.250 80.071 C 254.424 78.933,250.205 76.375,246.875 74.388 C 238.798 69.569,232.499 65.737,224.023 60.486 C 204.666 48.494,202.005 47.378,197.070 49.178 M227.784 82.862 C 229.342 84.420,228.811 86.786,220.148 116.912 C 218.739 121.809,217.509 126.204,217.413 126.677 C 217.249 127.489,216.743 129.365,214.811 136.328 C 214.364 137.939,213.411 141.455,212.694 144.141 C 211.977 146.826,210.748 151.396,209.963 154.297 C 206.327 167.736,205.801 170.625,206.831 171.480 C 207.382 171.938,212.678 172.049,238.999 172.158 C 282.644 172.338,280.808 171.314,267.751 188.198 C 259.613 198.722,250.082 211.533,242.650 221.935 C 241.322 223.794,239.664 226.006,238.965 226.849 C 238.267 227.693,237.309 228.896,236.836 229.524 C 233.640 233.768,227.752 241.690,224.631 245.946 C 222.602 248.713,219.966 252.207,218.772 253.711 C 217.578 255.215,215.996 257.324,215.257 258.398 C 214.517 259.473,211.880 263.080,209.397 266.415 C 206.914 269.751,202.773 275.357,200.195 278.873 C 184.697 300.015,177.339 309.751,176.390 310.373 C 173.556 312.229,170.550 307.561,172.042 303.621 C 172.796 301.629,178.849 282.468,179.109 281.250 C 179.178 280.928,179.880 278.643,180.668 276.172 C 181.457 273.701,182.144 271.504,182.195 271.289 C 182.529 269.895,184.732 263.129,186.138 259.180 C 187.056 256.602,188.426 252.559,189.183 250.195 C 194.733 232.856,197.872 223.245,198.749 220.898 C 199.750 218.219,200.118 214.832,199.477 214.191 C 199.299 214.013,183.421 213.779,164.191 213.672 L 129.229 213.477 128.286 212.381 C 126.243 210.005,126.570 209.300,134.769 198.408 C 144.907 184.941,146.661 182.626,147.065 182.188 C 147.283 181.952,150.361 177.920,153.906 173.229 C 157.451 168.538,161.499 163.194,162.901 161.354 C 164.303 159.514,167.907 154.756,170.909 150.781 C 173.911 146.807,176.679 143.210,177.059 142.788 C 177.440 142.367,179.286 139.931,181.161 137.374 C 183.036 134.818,185.895 131.032,187.515 128.961 C 189.134 126.890,191.419 123.886,192.593 122.287 C 194.775 119.312,203.156 108.016,210.620 97.990 C 212.915 94.906,215.956 90.889,217.377 89.063 C 218.797 87.236,220.342 85.188,220.809 84.511 C 222.550 81.984,226.073 81.151,227.784 82.862 " stroke="none" fill="#0b2343" fill-rule="evenodd"></path><path id="path3" d="M109.180 76.953 C 108.535 77.380,108.184 77.726,108.398 77.723 C 108.790 77.717,110.914 76.195,110.547 76.183 C 110.439 76.180,109.824 76.526,109.180 76.953 M90.524 88.248 C 88.963 89.249,88.675 89.655,90.039 88.931 C 91.676 88.063,92.453 87.508,91.992 87.535 C 91.777 87.547,91.117 87.868,90.524 88.248 M321.105 95.297 C 320.612 95.609,320.626 95.698,321.202 95.919 C 321.572 96.061,321.875 96.451,321.875 96.787 C 321.875 97.122,321.985 97.286,322.119 97.152 C 322.253 97.018,322.225 96.593,322.057 96.208 C 321.888 95.823,321.779 95.376,321.813 95.215 C 321.892 94.842,321.809 94.852,321.105 95.297 M323.039 97.080 C 322.767 97.407,322.658 97.788,322.796 97.926 C 322.934 98.064,323.047 98.016,323.047 97.819 C 323.047 97.622,323.486 97.436,324.021 97.405 C 324.611 97.371,324.895 97.510,324.742 97.758 C 324.584 98.014,324.680 98.049,324.999 97.852 C 325.397 97.606,325.351 97.422,324.789 97.011 C 323.873 96.341,323.645 96.350,323.039 97.080 M325.939 97.987 C 326.093 98.235,326.024 98.438,325.788 98.438 C 325.551 98.438,324.970 98.809,324.495 99.264 L 323.633 100.090 324.890 99.455 C 326.138 98.826,326.153 98.830,326.720 99.927 C 327.523 101.479,328.538 102.304,328.333 101.238 C 328.161 100.342,328.906 99.904,329.723 100.421 C 330.161 100.698,330.125 100.771,329.548 100.775 C 329.087 100.779,328.899 100.981,329.033 101.329 C 329.317 102.069,328.344 103.405,327.966 102.794 C 327.654 102.289,326.172 102.173,326.172 102.654 C 326.172 102.824,326.740 103.132,327.434 103.337 C 328.642 103.695,329.550 106.250,328.470 106.250 C 328.280 106.250,328.125 106.953,328.125 107.813 C 328.125 108.870,327.953 109.375,327.593 109.375 C 327.242 109.375,327.123 109.055,327.242 108.433 C 327.424 107.480,326.200 106.352,325.616 106.936 C 325.469 107.083,325.205 106.973,325.030 106.690 C 324.514 105.854,324.131 108.091,324.632 109.026 C 324.869 109.470,324.961 109.935,324.836 110.059 C 324.712 110.184,324.609 110.081,324.609 109.831 C 324.609 109.580,324.346 109.375,324.023 109.375 C 323.664 109.375,323.438 109.010,323.438 108.430 C 323.438 107.138,323.040 106.208,322.603 106.478 C 322.404 106.601,322.355 107.303,322.492 108.038 C 322.663 108.948,322.596 109.375,322.281 109.375 C 321.969 109.375,321.860 110.028,321.945 111.386 C 322.040 112.909,321.928 113.442,321.484 113.583 C 321.020 113.731,320.997 113.665,321.372 113.266 C 321.749 112.866,321.640 112.656,320.839 112.241 C 319.547 111.571,319.531 111.574,319.531 112.500 C 319.531 112.934,319.271 113.281,318.945 113.281 C 318.623 113.281,318.359 113.105,318.359 112.891 C 318.359 112.676,318.096 112.500,317.773 112.500 C 317.451 112.500,317.188 112.676,317.188 112.891 C 317.188 113.105,317.363 113.281,317.578 113.281 C 317.793 113.281,317.969 113.555,317.969 113.890 C 317.969 114.225,318.145 114.391,318.359 114.258 C 318.574 114.125,318.750 114.312,318.750 114.672 C 318.750 115.173,318.346 114.997,317.041 113.928 L 315.332 112.528 315.430 113.679 C 315.484 114.312,315.371 114.733,315.180 114.615 C 314.988 114.496,314.932 114.236,315.056 114.036 C 315.179 113.836,315.084 113.672,314.844 113.672 C 314.604 113.672,314.532 113.469,314.686 113.221 C 314.860 112.939,314.793 112.876,314.507 113.053 C 314.256 113.208,314.166 113.543,314.309 113.797 C 314.451 114.050,314.184 113.862,313.714 113.379 C 313.244 112.896,312.750 112.500,312.615 112.500 C 312.480 112.500,312.485 112.616,312.627 112.757 C 312.768 112.898,312.666 113.294,312.399 113.636 C 311.970 114.186,311.993 114.196,312.598 113.722 C 312.974 113.427,313.281 113.345,313.281 113.540 C 313.281 114.031,315.457 115.272,315.770 114.960 C 316.106 114.623,317.178 116.106,316.910 116.539 C 316.796 116.724,317.051 116.688,317.477 116.460 C 318.065 116.146,318.429 116.190,318.989 116.646 C 319.395 116.976,319.507 117.134,319.238 116.998 C 318.970 116.862,318.750 116.826,318.750 116.917 C 318.750 117.197,321.952 119.221,322.528 119.306 C 322.825 119.349,323.076 119.550,323.085 119.751 C 323.117 120.426,324.318 121.469,324.759 121.205 C 324.999 121.061,324.960 121.234,324.672 121.589 C 324.216 122.152,324.249 122.215,324.928 122.084 C 325.550 121.964,325.685 122.122,325.603 122.870 C 325.547 123.385,325.608 123.751,325.739 123.684 C 326.485 123.300,327.507 125.384,327.491 127.257 C 327.483 128.105,327.595 128.369,327.821 128.038 C 328.022 127.745,328.075 128.746,327.950 130.469 C 327.834 132.080,327.883 134.401,328.059 135.626 C 328.235 136.851,328.233 137.762,328.055 137.652 C 327.876 137.541,327.733 165.500,327.737 199.781 C 327.743 254.535,327.672 262.284,327.153 263.525 C 326.828 264.303,326.563 265.033,326.563 265.148 C 326.563 265.262,326.114 265.944,325.566 266.662 C 325.018 267.381,324.677 267.969,324.809 267.969 C 324.940 267.969,324.202 268.667,323.168 269.520 C 322.135 270.373,320.981 271.340,320.605 271.668 C 320.229 271.997,319.840 272.222,319.739 272.168 C 319.639 272.114,319.187 272.387,318.734 272.774 C 318.282 273.162,317.529 273.625,317.062 273.803 C 316.594 273.982,314.102 275.402,311.523 276.960 C 308.945 278.518,305.783 280.398,304.495 281.139 C 303.208 281.880,302.046 282.663,301.913 282.878 C 301.779 283.094,301.564 283.211,301.434 283.139 C 301.304 283.067,300.840 283.314,300.403 283.688 C 299.967 284.061,299.607 284.237,299.603 284.078 C 299.600 283.919,299.468 283.978,299.310 284.209 C 299.153 284.440,298.013 285.136,296.777 285.755 C 295.542 286.375,294.531 286.992,294.531 287.126 C 294.531 287.260,294.312 287.374,294.043 287.380 C 293.447 287.392,286.966 291.386,286.784 291.854 C 286.712 292.037,286.405 292.187,286.100 292.188 C 285.796 292.188,285.547 292.334,285.547 292.513 C 285.547 292.692,285.327 292.841,285.059 292.843 C 284.497 292.849,278.465 296.476,278.033 297.068 C 277.875 297.284,277.744 297.317,277.740 297.141 C 277.737 296.966,277.224 297.185,276.600 297.630 C 275.976 298.074,275.298 298.438,275.094 298.438 C 274.890 298.438,274.269 298.859,273.714 299.373 C 273.159 299.888,272.634 300.238,272.548 300.153 C 272.463 300.067,271.353 300.668,270.083 301.488 C 268.813 302.308,266.587 303.643,265.137 304.453 C 263.687 305.264,262.500 306.098,262.500 306.307 C 262.500 306.516,262.324 306.578,262.109 306.445 C 261.895 306.313,261.719 306.390,261.719 306.618 C 261.719 306.845,261.520 307.031,261.277 307.031 C 260.706 307.031,254.080 310.820,253.317 311.583 C 252.997 311.903,252.734 312.037,252.734 311.881 C 252.734 311.725,252.427 311.875,252.051 312.215 C 251.675 312.554,250.315 313.385,249.030 314.060 C 247.744 314.736,246.560 315.496,246.399 315.750 C 246.238 316.003,246.103 316.084,246.100 315.928 C 246.096 315.773,245.259 316.143,244.238 316.751 C 238.815 319.984,235.749 321.939,235.520 322.309 C 235.379 322.537,235.156 322.664,235.024 322.592 C 234.700 322.416,231.641 324.324,231.641 324.702 C 231.641 324.866,231.397 325.000,231.099 325.000 C 230.314 325.000,223.857 329.027,224.075 329.381 C 224.177 329.545,224.024 329.588,223.737 329.478 C 223.450 329.368,222.825 329.640,222.350 330.084 C 221.874 330.527,221.484 330.783,221.484 330.653 C 221.484 330.360,219.054 332.033,218.658 332.598 C 218.500 332.824,218.369 332.866,218.365 332.693 C 218.357 332.274,216.016 333.668,216.016 334.092 C 216.016 334.273,215.869 334.331,215.690 334.220 C 215.511 334.109,214.676 334.487,213.835 335.059 C 208.323 338.806,203.934 340.676,200.319 340.819 C 198.640 340.885,197.266 340.819,197.266 340.672 C 197.266 340.254,194.853 339.450,194.414 339.721 C 194.197 339.855,194.126 339.792,194.256 339.582 C 194.483 339.215,191.133 337.281,190.527 337.429 C 190.366 337.468,190.234 337.337,190.234 337.138 C 190.234 336.939,189.312 336.313,188.184 335.746 C 185.716 334.507,184.777 333.948,184.071 333.301 C 183.778 333.032,183.279 332.812,182.964 332.813 C 182.648 332.813,182.012 332.461,181.551 332.031 C 181.089 331.602,180.482 331.250,180.200 331.250 C 179.918 331.250,179.688 331.093,179.688 330.901 C 179.688 330.709,179.415 330.448,179.081 330.320 C 178.685 330.168,178.572 330.244,178.755 330.540 C 178.909 330.789,178.572 330.655,178.006 330.243 C 177.441 329.830,176.972 329.360,176.965 329.199 C 176.959 329.038,176.689 328.906,176.367 328.906 C 176.045 328.906,175.781 328.742,175.781 328.542 C 175.781 328.223,174.521 327.612,173.750 327.558 C 173.600 327.548,173.257 327.319,172.988 327.051 C 172.720 326.782,172.261 326.563,171.969 326.563 C 171.677 326.563,171.547 326.387,171.680 326.172 C 171.885 325.839,171.301 325.592,170.987 325.879 C 170.928 325.933,170.462 325.587,169.951 325.111 C 169.440 324.635,168.873 324.338,168.691 324.451 C 168.509 324.563,168.359 324.469,168.359 324.242 C 168.359 324.014,168.123 323.828,167.833 323.828 C 167.544 323.828,166.902 323.477,166.406 323.047 C 165.911 322.617,165.296 322.266,165.040 322.266 C 164.784 322.266,164.075 321.836,163.464 321.311 C 162.853 320.786,162.211 320.445,162.036 320.553 C 161.862 320.661,161.719 320.553,161.719 320.313 C 161.719 320.072,161.543 319.984,161.328 320.117 C 161.113 320.250,160.938 320.215,160.938 320.039 C 160.938 319.863,160.568 319.488,160.115 319.206 C 159.435 318.781,159.339 318.781,159.558 319.209 C 159.704 319.494,159.573 319.422,159.268 319.049 C 158.962 318.676,158.597 318.486,158.457 318.626 C 158.318 318.766,158.203 318.646,158.203 318.359 C 158.203 318.073,158.101 317.941,157.975 318.066 C 157.850 318.192,157.410 317.957,156.999 317.546 C 156.587 317.134,155.986 316.797,155.664 316.797 C 155.342 316.797,155.078 316.611,155.078 316.383 C 155.078 316.156,154.902 316.078,154.688 316.211 C 154.473 316.344,154.297 316.237,154.297 315.974 C 154.297 315.710,154.182 315.609,154.043 315.749 C 153.903 315.889,153.538 315.699,153.232 315.326 C 152.861 314.874,152.761 314.843,152.930 315.234 C 153.069 315.557,152.906 315.479,152.568 315.062 C 152.230 314.645,151.953 314.432,151.953 314.589 C 151.953 314.746,151.575 314.522,151.113 314.091 C 150.650 313.661,150.130 313.396,149.955 313.504 C 149.781 313.612,149.280 313.342,148.842 312.905 C 148.405 312.467,148.042 312.241,148.035 312.402 C 148.028 312.563,147.842 312.384,147.620 312.004 C 147.399 311.623,147.053 311.414,146.851 311.538 C 146.649 311.663,146.484 311.579,146.484 311.351 C 146.484 311.124,146.142 310.938,145.723 310.938 C 145.304 310.938,144.782 310.630,144.563 310.254 C 144.344 309.878,144.159 309.716,144.153 309.895 C 144.140 310.242,141.474 308.762,140.820 308.046 C 139.910 307.047,138.892 306.405,139.212 307.031 C 139.376 307.354,139.234 307.276,138.896 306.859 C 138.558 306.442,138.281 306.222,138.281 306.371 C 138.281 306.519,137.923 306.283,137.486 305.845 C 137.048 305.408,136.520 305.155,136.311 305.284 C 136.103 305.413,135.827 305.244,135.698 304.910 C 135.570 304.575,135.308 304.399,135.115 304.517 C 134.923 304.636,134.766 304.537,134.766 304.297 C 134.766 304.057,134.590 303.969,134.375 304.102 C 134.160 304.234,133.984 304.146,133.984 303.906 C 133.984 303.666,133.807 303.579,133.591 303.713 C 133.375 303.846,133.093 303.682,132.964 303.347 C 132.836 303.013,132.605 302.817,132.451 302.912 C 132.051 303.159,129.687 301.656,129.688 301.155 C 129.688 300.924,129.553 300.819,129.388 300.920 C 128.953 301.189,126.121 299.400,126.454 299.067 C 126.608 298.913,126.403 298.914,125.998 299.069 C 125.479 299.268,125.347 299.214,125.551 298.885 C 125.710 298.628,125.694 298.457,125.517 298.505 C 124.884 298.676,123.431 297.984,123.656 297.618 C 123.783 297.414,123.741 297.271,123.564 297.302 C 122.744 297.445,122.205 297.180,121.085 296.085 C 120.420 295.435,119.711 295.006,119.509 295.131 C 119.306 295.256,119.141 295.143,119.141 294.880 C 119.141 294.616,119.026 294.515,118.886 294.655 C 118.746 294.795,118.382 294.605,118.076 294.232 C 117.705 293.780,117.604 293.750,117.773 294.141 C 117.999 294.661,117.969 294.661,117.508 294.141 C 117.223 293.818,116.758 293.507,116.475 293.448 C 115.700 293.287,114.063 292.144,114.063 291.764 C 114.063 291.581,113.817 291.525,113.517 291.640 C 113.217 291.755,112.734 291.510,112.443 291.094 C 112.152 290.679,111.826 290.342,111.719 290.344 C 110.935 290.364,109.801 289.711,110.016 289.365 C 110.159 289.132,110.110 289.045,109.906 289.171 C 109.417 289.473,105.765 287.334,106.136 286.963 C 106.293 286.806,106.147 286.783,105.812 286.911 C 105.477 287.040,104.978 286.873,104.702 286.541 C 104.427 286.209,103.954 285.937,103.651 285.937 C 103.348 285.938,103.011 285.703,102.901 285.417 C 102.791 285.130,102.469 284.896,102.185 284.896 C 101.461 284.896,98.828 283.219,98.828 282.758 C 98.828 282.548,98.651 282.485,98.435 282.619 C 98.218 282.753,97.936 282.588,97.808 282.254 C 97.679 281.919,97.423 281.738,97.239 281.852 C 97.054 281.966,96.560 281.716,96.141 281.297 C 95.721 280.877,95.286 280.625,95.175 280.736 C 95.064 280.848,94.611 280.686,94.168 280.376 C 93.726 280.066,93.463 279.714,93.583 279.594 C 93.704 279.473,93.483 279.401,93.092 279.434 C 92.702 279.466,92.418 279.298,92.462 279.060 C 92.506 278.817,92.119 278.673,91.581 278.733 C 91.053 278.790,90.720 278.677,90.841 278.481 C 90.963 278.285,90.865 278.125,90.625 278.125 C 90.385 278.125,90.314 277.922,90.467 277.674 C 90.643 277.389,90.574 277.329,90.278 277.512 C 90.020 277.671,89.561 277.596,89.258 277.344 C 88.954 277.092,88.479 277.023,88.201 277.190 C 87.834 277.411,87.844 277.310,88.239 276.824 C 88.719 276.231,88.701 276.185,88.077 276.425 C 87.626 276.598,87.464 276.546,87.627 276.282 C 87.772 276.048,87.589 275.893,87.203 275.923 C 86.829 275.952,86.565 275.763,86.616 275.502 C 86.674 275.210,86.462 275.123,86.064 275.276 C 85.596 275.455,85.507 275.381,85.738 275.006 C 85.951 274.662,85.907 274.582,85.608 274.767 C 85.053 275.110,83.487 274.077,83.889 273.633 C 84.049 273.456,83.960 273.439,83.692 273.593 C 83.118 273.923,81.511 272.916,81.936 272.491 C 82.096 272.331,82.051 272.250,81.836 272.310 C 81.109 272.515,79.673 271.824,79.937 271.396 C 80.097 271.138,80.016 271.086,79.731 271.262 C 79.183 271.601,77.222 270.434,77.522 269.949 C 77.745 269.589,76.586 268.474,76.209 268.686 C 76.081 268.758,75.713 269.013,75.391 269.253 C 74.919 269.604,74.893 269.589,75.262 269.173 C 75.618 268.770,75.470 268.314,74.585 267.092 C 73.962 266.231,73.564 265.346,73.700 265.125 C 73.855 264.875,73.753 264.844,73.431 265.043 C 73.057 265.274,72.982 265.185,73.162 264.717 C 73.298 264.362,73.284 264.091,73.130 264.113 C 72.358 264.229,72.221 263.999,72.706 263.402 C 73.028 263.005,73.055 262.853,72.774 263.022 C 71.968 263.505,71.872 261.457,71.693 240.039 C 71.518 219.026,71.211 211.148,70.687 214.258 C 70.481 215.480,70.411 215.118,70.368 212.598 C 70.337 210.825,70.161 209.375,69.976 209.375 C 69.791 209.375,69.723 209.812,69.825 210.345 C 69.927 210.879,69.869 211.626,69.696 212.005 C 69.461 212.522,69.317 212.253,69.125 210.938 L 68.867 209.180 68.809 210.840 C 68.748 212.547,67.969 213.232,67.969 211.578 C 67.969 211.071,67.857 209.840,67.720 208.844 C 67.518 207.369,67.583 207.031,68.069 207.031 C 68.398 207.031,68.752 206.809,68.856 206.537 C 68.995 206.175,68.622 206.084,67.454 206.195 C 65.758 206.357,64.844 206.982,64.844 207.980 C 64.844 208.402,64.477 208.594,63.672 208.594 C 63.027 208.594,62.500 208.770,62.500 208.984 C 62.500 209.199,62.324 209.375,62.109 209.375 C 61.895 209.375,61.719 208.672,61.719 207.813 C 61.719 206.953,61.895 206.250,62.109 206.250 C 62.324 206.250,62.500 206.514,62.500 206.836 C 62.500 207.575,62.924 207.579,63.890 206.848 C 64.474 206.407,64.514 206.268,64.063 206.245 C 63.740 206.229,62.158 206.063,60.547 205.876 C 58.696 205.662,57.448 205.677,57.156 205.918 C 56.103 206.791,54.249 206.678,54.735 205.771 C 55.167 204.964,55.198 204.961,55.715 205.668 C 56.221 206.360,56.249 206.348,56.238 205.446 C 56.223 204.302,55.082 202.681,54.807 203.413 C 54.383 204.542,53.152 205.699,53.138 204.980 C 53.131 204.604,53.301 204.297,53.516 204.297 C 54.013 204.297,54.030 203.233,53.535 203.060 C 53.308 202.980,53.072 192.730,52.929 176.770 C 52.799 162.382,52.615 150.532,52.519 150.435 C 52.423 150.339,52.306 177.228,52.260 210.189 C 52.215 243.149,52.072 267.217,51.944 263.672 L 51.711 257.227 51.684 264.355 C 51.666 268.854,51.799 271.484,52.045 271.484 C 52.260 271.484,52.351 271.923,52.249 272.458 C 52.143 273.013,52.291 273.623,52.594 273.873 C 52.886 274.116,53.126 274.601,53.126 274.950 C 53.129 275.935,54.430 277.839,56.252 279.523 C 57.164 280.365,58.327 281.442,58.837 281.916 C 59.348 282.389,59.766 282.695,59.766 282.595 C 59.766 282.494,60.461 282.851,61.312 283.388 C 62.162 283.925,63.085 284.410,63.362 284.467 C 63.640 284.524,64.097 284.878,64.378 285.254 C 64.658 285.630,65.152 285.937,65.475 285.938 C 65.834 285.938,65.953 286.127,65.781 286.426 C 65.626 286.694,65.638 286.789,65.807 286.637 C 66.167 286.312,67.827 287.119,68.945 288.163 C 69.375 288.564,70.693 289.392,71.875 290.004 C 73.057 290.616,74.111 291.243,74.219 291.398 C 74.326 291.553,75.996 292.527,77.930 293.563 C 79.863 294.598,81.533 295.561,81.641 295.701 C 81.748 295.842,83.594 296.995,85.742 298.265 C 87.891 299.534,89.932 300.751,90.278 300.970 C 90.624 301.188,91.854 301.874,93.012 302.494 C 94.170 303.114,95.852 304.124,96.750 304.740 C 97.648 305.356,98.495 305.859,98.633 305.859 C 98.770 305.859,99.649 306.387,100.586 307.031 C 101.523 307.676,102.372 308.203,102.473 308.203 C 102.573 308.203,103.772 308.910,105.137 309.774 C 106.501 310.638,108.235 311.648,108.989 312.020 C 109.744 312.391,110.914 313.091,111.589 313.574 C 112.264 314.058,112.918 314.453,113.043 314.453 C 113.167 314.453,114.195 315.023,115.326 315.721 C 116.457 316.418,117.862 317.253,118.447 317.576 C 119.032 317.899,120.965 319.037,122.744 320.104 C 124.522 321.171,126.592 322.377,127.344 322.783 C 128.096 323.190,128.988 323.767,129.328 324.066 C 129.667 324.365,130.081 324.609,130.248 324.609 C 130.414 324.609,131.332 325.137,132.287 325.781 C 133.242 326.426,134.130 326.953,134.260 326.953 C 134.390 326.953,135.041 327.368,135.705 327.875 C 136.370 328.382,137.793 329.270,138.867 329.849 C 141.176 331.093,141.832 331.484,144.009 332.910 C 144.911 333.501,145.740 333.984,145.852 333.984 C 145.963 333.984,146.836 334.512,147.791 335.156 C 148.746 335.801,149.720 336.328,149.956 336.328 C 150.191 336.328,151.190 336.943,152.175 337.695 C 153.812 338.945,154.193 339.129,154.937 339.029 C 155.074 339.011,155.294 339.144,155.425 339.326 C 155.716 339.727,158.876 341.797,159.197 341.797 C 159.324 341.797,159.987 342.208,160.671 342.710 C 161.355 343.212,162.881 344.115,164.063 344.717 C 165.244 345.318,167.234 346.489,168.485 347.319 C 169.735 348.149,170.922 348.828,171.121 348.828 C 171.321 348.828,171.484 349.004,171.484 349.219 C 171.484 349.434,171.836 349.609,172.266 349.609 C 172.695 349.609,173.047 349.785,173.047 350.000 C 173.047 350.215,173.318 350.391,173.649 350.391 C 173.980 350.391,174.599 350.714,175.023 351.109 C 175.447 351.505,176.275 352.076,176.862 352.379 C 177.449 352.682,178.633 353.387,179.492 353.945 C 180.352 354.503,181.626 355.205,182.324 355.505 C 183.022 355.805,183.594 356.183,183.594 356.345 C 183.594 356.508,183.857 356.641,184.180 356.641 C 184.502 356.641,184.766 356.827,184.766 357.054 C 184.766 357.282,184.941 357.359,185.156 357.227 C 185.371 357.094,185.547 357.171,185.547 357.399 C 185.547 357.626,185.784 357.813,186.073 357.813 C 186.362 357.813,187.005 358.164,187.500 358.594 C 187.995 359.023,188.638 359.375,188.927 359.375 C 189.216 359.375,189.453 359.551,189.453 359.766 C 189.453 359.980,189.704 360.156,190.011 360.156 C 190.318 360.156,190.841 360.428,191.172 360.759 C 192.804 362.391,199.202 363.903,202.539 363.444 C 203.398 363.326,204.497 363.197,204.980 363.158 C 205.464 363.118,205.859 362.974,205.859 362.836 C 205.859 362.699,206.462 362.474,207.198 362.336 C 207.934 362.198,208.594 361.941,208.663 361.766 C 208.732 361.590,210.107 360.747,211.719 359.891 C 215.330 357.974,218.100 356.411,220.012 355.211 C 220.813 354.708,221.604 354.292,221.770 354.286 C 221.935 354.280,222.761 353.753,223.605 353.114 C 224.449 352.476,225.372 351.953,225.656 351.953 C 225.940 351.953,226.172 351.777,226.172 351.563 C 226.172 351.348,226.436 351.172,226.758 351.172 C 227.080 351.172,227.344 351.036,227.344 350.871 C 227.344 350.705,228.179 350.134,229.199 349.601 C 230.220 349.069,231.113 348.501,231.185 348.340 C 231.257 348.179,231.619 348.047,231.990 348.047 C 232.361 348.047,233.011 347.739,233.434 347.363 C 233.857 346.987,235.044 346.240,236.073 345.703 C 237.101 345.166,238.275 344.419,238.681 344.043 C 239.088 343.667,239.611 343.359,239.843 343.359 C 240.204 343.359,242.368 342.007,242.969 341.406 C 243.279 341.096,245.363 339.925,247.137 339.063 C 248.033 338.628,248.827 338.089,248.902 337.865 C 248.977 337.641,249.298 337.413,249.616 337.359 C 249.935 337.305,251.162 336.691,252.344 335.996 C 255.527 334.121,255.938 333.854,256.791 333.105 C 257.219 332.729,257.800 332.422,258.081 332.422 C 258.363 332.422,258.594 332.284,258.594 332.116 C 258.594 331.947,259.648 331.308,260.938 330.696 C 262.227 330.084,263.281 329.446,263.281 329.279 C 263.281 329.113,264.116 328.577,265.137 328.090 C 266.157 327.602,267.695 326.762,268.555 326.222 C 269.414 325.682,270.895 324.823,271.846 324.313 C 272.797 323.803,274.780 322.607,276.253 321.654 C 277.726 320.701,279.082 319.922,279.267 319.922 C 279.452 319.922,279.705 319.658,279.829 319.336 C 279.952 319.014,280.312 318.750,280.628 318.750 C 280.944 318.750,282.664 317.855,284.449 316.760 C 286.235 315.666,288.196 314.479,288.809 314.123 C 289.421 313.768,292.233 312.091,295.059 310.398 C 297.884 308.705,301.602 306.492,303.320 305.481 C 305.039 304.470,308.790 302.208,311.656 300.454 C 314.523 298.700,317.028 297.266,317.223 297.266 C 317.418 297.266,317.578 297.090,317.578 296.875 C 317.578 296.660,317.767 296.484,317.998 296.484 C 318.388 296.484,323.782 293.447,324.219 292.982 C 324.515 292.666,325.820 291.896,327.344 291.139 C 328.096 290.765,328.943 290.233,329.227 289.956 C 329.511 289.680,329.994 289.453,330.301 289.453 C 330.608 289.453,330.859 289.296,330.859 289.105 C 330.859 288.913,331.258 288.656,331.746 288.534 C 332.234 288.412,333.025 287.946,333.504 287.500 C 333.983 287.054,334.375 286.804,334.375 286.945 C 334.375 287.086,334.990 286.733,335.742 286.159 C 336.494 285.586,337.109 285.220,337.109 285.347 C 337.109 285.474,337.460 285.250,337.889 284.851 C 338.318 284.451,339.473 283.723,340.456 283.232 C 341.440 282.741,342.337 282.095,342.452 281.797 C 342.566 281.498,342.798 281.340,342.967 281.444 C 343.136 281.549,343.538 281.240,343.862 280.758 C 344.185 280.277,344.823 279.491,345.280 279.011 C 345.736 278.532,346.104 278.048,346.097 277.935 C 346.090 277.823,346.351 277.095,346.675 276.318 C 347.000 275.540,347.266 274.750,347.266 274.562 C 347.266 274.373,347.397 274.219,347.559 274.219 C 348.073 274.219,348.162 267.710,347.892 249.805 C 347.808 244.219,347.868 240.088,348.027 240.625 C 348.234 241.326,348.311 241.009,348.301 239.502 C 348.292 238.187,348.179 237.676,347.999 238.135 C 347.841 238.538,347.730 236.934,347.754 234.570 C 347.796 230.390,347.804 230.353,348.047 233.203 C 348.184 234.814,348.285 209.941,348.271 177.930 L 348.246 119.727 348.043 174.609 L 347.840 229.492 347.763 172.630 C 347.690 118.112,347.627 114.184,346.834 114.674 C 346.472 114.898,346.446 114.836,346.293 113.386 C 346.183 112.342,345.408 111.328,344.721 111.328 C 344.448 111.328,344.113 111.040,343.978 110.687 C 343.762 110.125,343.817 110.113,344.424 110.589 C 344.805 110.888,344.589 110.497,343.945 109.719 C 342.809 108.348,340.205 106.426,340.810 107.405 C 341.043 107.782,340.930 107.794,340.303 107.459 C 339.860 107.221,339.372 106.825,339.219 106.578 C 339.034 106.279,339.124 106.233,339.490 106.440 C 339.801 106.616,339.744 106.438,339.358 106.029 C 338.789 105.425,338.597 105.394,338.186 105.836 C 337.916 106.127,337.886 106.259,338.118 106.129 C 338.351 106.000,338.542 106.142,338.542 106.445 C 338.542 106.749,338.410 106.916,338.250 106.816 C 338.089 106.717,337.868 106.857,337.758 107.126 C 337.648 107.396,337.610 107.042,337.674 106.340 C 337.738 105.637,337.610 104.951,337.389 104.814 C 337.145 104.663,337.109 104.762,337.299 105.068 C 337.505 105.403,337.428 105.510,337.066 105.389 C 336.768 105.290,336.523 105.018,336.523 104.785 C 336.523 104.552,336.363 104.215,336.168 104.036 C 335.968 103.853,335.914 103.891,336.046 104.122 C 336.190 104.377,335.728 104.547,334.839 104.567 C 333.578 104.596,333.513 104.556,334.322 104.249 C 335.086 103.959,335.162 103.798,334.762 103.316 C 334.234 102.680,333.959 102.571,334.031 103.027 C 334.156 103.821,333.902 103.830,333.021 103.064 C 332.491 102.603,332.145 102.086,332.251 101.914 C 332.357 101.742,332.066 101.400,331.604 101.153 C 331.023 100.841,330.847 100.835,331.031 101.133 C 331.177 101.369,331.108 101.563,330.879 101.563 C 330.604 101.563,330.625 101.824,330.940 102.328 C 331.214 102.767,331.522 102.926,331.662 102.700 C 331.907 102.304,332.347 102.697,333.014 103.906 C 333.276 104.380,333.194 104.371,332.587 103.860 C 332.174 103.512,331.616 103.307,331.348 103.404 C 331.079 103.501,330.859 103.380,330.859 103.134 C 330.859 102.889,330.696 102.789,330.496 102.913 C 330.296 103.037,330.005 102.932,329.849 102.680 C 329.673 102.395,329.736 102.328,330.018 102.502 C 330.266 102.655,330.469 102.594,330.469 102.367 C 330.469 102.139,330.249 101.950,329.980 101.947 C 329.666 101.943,329.636 101.839,329.896 101.654 C 330.624 101.137,330.295 100.373,328.988 99.545 C 328.211 99.053,327.747 98.924,327.816 99.219 C 327.878 99.487,327.718 99.785,327.459 99.880 C 327.163 99.989,327.044 99.761,327.139 99.268 C 327.252 98.680,327.133 98.543,326.667 98.722 C 326.271 98.874,326.141 98.804,326.309 98.531 C 326.456 98.294,326.369 97.974,326.118 97.818 C 325.832 97.642,325.765 97.705,325.939 97.987 M294.537 101.293 C 294.534 101.681,294.355 101.891,294.141 101.758 C 293.926 101.625,293.750 101.703,293.750 101.930 C 293.750 102.414,294.145 102.453,294.804 102.034 C 295.112 101.838,295.147 101.541,294.907 101.162 C 294.604 100.682,294.542 100.704,294.537 101.293 M325.000 103.686 C 325.000 104.450,326.221 105.698,327.305 106.042 C 328.692 106.483,328.245 105.370,326.554 104.174 C 325.352 103.323,325.000 103.213,325.000 103.686 M336.719 105.962 C 337.049 106.092,336.869 106.170,336.308 106.142 C 335.599 106.107,335.295 105.861,335.256 105.292 C 335.208 104.589,335.258 104.567,335.667 105.112 C 335.923 105.454,336.396 105.836,336.719 105.962 M302.965 106.584 C 302.851 106.767,303.187 107.320,303.711 107.813 C 304.235 108.305,304.589 108.828,304.498 108.975 C 304.261 109.358,305.784 109.196,306.144 108.799 C 306.310 108.617,306.251 108.579,306.014 108.714 C 305.511 109.001,303.001 106.894,303.387 106.509 C 303.529 106.367,303.539 106.250,303.408 106.250 C 303.278 106.250,303.078 106.400,302.965 106.584 M57.082 108.627 C 55.980 109.505,55.078 110.385,55.078 110.584 C 55.078 110.782,55.649 110.391,56.348 109.715 C 57.046 109.039,58.145 108.159,58.789 107.760 C 59.434 107.361,59.764 107.034,59.524 107.033 C 59.283 107.032,58.185 107.749,57.082 108.627 M306.813 109.986 C 307.230 110.294,307.933 110.536,308.375 110.522 C 309.092 110.500,309.073 110.451,308.203 110.073 C 306.627 109.389,305.949 109.347,306.813 109.986 M310.368 109.739 C 310.245 109.939,310.341 110.224,310.582 110.373 C 310.901 110.571,310.893 110.724,310.551 110.935 C 310.249 111.122,310.455 111.318,311.130 111.488 C 312.053 111.719,312.116 111.831,311.656 112.418 C 311.184 113.021,311.200 113.033,311.819 112.547 C 312.465 112.041,312.448 111.951,311.533 111.035 C 310.997 110.500,310.655 109.907,310.771 109.718 C 310.888 109.530,310.896 109.375,310.788 109.375 C 310.681 109.375,310.492 109.539,310.368 109.739 M52.136 116.195 C 51.795 117.369,51.584 119.082,51.666 120.004 C 51.812 121.625,51.819 121.613,51.885 119.629 C 51.922 118.501,52.127 117.578,52.339 117.578 C 52.551 117.578,52.699 117.271,52.668 116.895 C 52.556 115.557,52.740 114.801,53.121 115.036 C 53.342 115.173,53.407 115.016,53.274 114.669 C 52.919 113.742,52.805 113.895,52.136 116.195 M52.520 136.328 C 52.520 143.955,52.572 147.075,52.636 143.262 C 52.700 139.448,52.700 133.208,52.636 129.395 C 52.572 125.581,52.520 128.701,52.520 136.328 M51.710 128.125 C 51.710 130.596,51.774 131.606,51.851 130.371 C 51.929 129.136,51.929 127.114,51.851 125.879 C 51.774 124.644,51.710 125.654,51.710 128.125 M51.364 134.082 C 51.236 134.780,51.288 136.758,51.480 138.477 L 51.830 141.602 51.841 137.207 C 51.852 132.612,51.754 131.966,51.364 134.082 M51.653 145.313 C 51.653 146.064,51.734 146.372,51.832 145.996 C 51.930 145.620,51.930 145.005,51.832 144.629 C 51.734 144.253,51.653 144.561,51.653 145.313 M51.424 161.426 C 51.740 170.745,52.004 170.839,51.927 161.606 C 51.893 157.586,51.712 154.297,51.524 154.297 C 51.332 154.297,51.288 157.423,51.424 161.426 M51.328 175.405 C 51.518 177.649,51.953 177.820,51.953 175.651 C 51.953 174.648,51.782 173.828,51.574 173.828 C 51.365 173.828,51.254 174.538,51.328 175.405 M51.267 185.156 C 51.318 187.090,51.476 188.672,51.618 188.672 C 51.760 188.672,51.857 187.090,51.833 185.156 C 51.809 183.223,51.651 181.641,51.481 181.641 C 51.312 181.641,51.215 183.223,51.267 185.156 M51.725 196.289 C 51.726 200.371,51.784 201.988,51.854 199.882 C 51.924 197.776,51.924 194.436,51.853 192.460 C 51.783 190.484,51.725 192.207,51.725 196.289 M69.638 201.563 C 69.638 202.529,69.714 202.925,69.807 202.441 C 69.900 201.958,69.900 201.167,69.807 200.684 C 69.714 200.200,69.638 200.596,69.638 201.563 M60.059 203.401 C 60.542 203.494,61.333 203.494,61.816 203.401 C 62.300 203.308,61.904 203.231,60.938 203.231 C 59.971 203.231,59.575 203.308,60.059 203.401 M51.549 209.180 C 51.434 211.543,51.390 213.550,51.451 213.639 C 51.841 214.210,51.967 212.855,51.869 209.133 L 51.758 204.883 51.549 209.180 M66.406 208.812 C 66.406 209.122,66.230 209.375,66.016 209.375 C 65.801 209.375,65.625 209.013,65.625 208.571 C 65.625 208.128,65.801 207.875,66.016 208.008 C 66.230 208.141,66.406 208.503,66.406 208.812 M70.753 210.938 C 70.753 212.373,70.817 212.534,71.106 211.816 C 71.317 211.292,71.317 210.583,71.106 210.059 C 70.817 209.341,70.753 209.502,70.753 210.938 M66.797 210.938 C 66.797 211.372,66.536 211.719,66.211 211.719 C 65.885 211.719,65.625 211.372,65.625 210.938 C 65.625 210.503,65.885 210.156,66.211 210.156 C 66.536 210.156,66.797 210.503,66.797 210.938 M69.531 216.016 C 69.531 218.624,70.068 219.736,70.427 217.871 C 70.574 217.108,70.604 217.132,70.650 218.053 C 70.685 218.750,70.436 219.256,69.922 219.531 C 69.049 219.998,69.019 219.921,69.134 217.460 C 69.172 216.637,68.921 215.543,68.570 215.007 C 67.893 213.974,68.053 213.281,68.968 213.281 C 69.405 213.281,69.531 213.895,69.531 216.016 M51.661 215.820 C 51.665 216.680,51.745 216.985,51.839 216.499 C 51.932 216.013,51.929 215.310,51.831 214.937 C 51.733 214.563,51.657 214.961,51.661 215.820 M51.707 222.656 C 51.707 224.912,51.772 225.835,51.850 224.707 C 51.929 223.579,51.929 221.733,51.850 220.605 C 51.772 219.478,51.707 220.400,51.707 222.656 M51.669 232.813 C 51.669 233.779,51.745 234.175,51.838 233.691 C 51.931 233.208,51.931 232.417,51.838 231.934 C 51.745 231.450,51.669 231.846,51.669 232.813 M51.699 241.406 C 51.699 243.232,51.766 243.979,51.849 243.066 C 51.931 242.153,51.931 240.659,51.849 239.746 C 51.766 238.833,51.699 239.580,51.699 241.406 M51.661 247.852 C 51.665 248.711,51.745 249.017,51.839 248.531 C 51.932 248.045,51.929 247.342,51.831 246.968 C 51.733 246.595,51.657 246.992,51.661 247.852 M51.699 253.125 C 51.699 254.951,51.766 255.698,51.849 254.785 C 51.931 253.872,51.931 252.378,51.849 251.465 C 51.766 250.552,51.699 251.299,51.699 253.125 " stroke="none" fill="#057ff4" fill-rule="evenodd"></path><path id="path4" d="M344.344 110.254 C 345.182 111.274,345.931 112.109,346.008 112.109 C 346.287 112.109,344.590 109.939,343.717 109.180 C 343.223 108.750,343.505 109.233,344.344 110.254 M51.432 137.370 C 51.289 137.513,51.172 141.058,51.172 145.247 C 51.172 149.437,51.304 152.733,51.465 152.571 C 51.679 152.357,51.935 137.113,51.725 137.110 C 51.707 137.110,51.576 137.227,51.432 137.370 M51.172 153.711 C 51.172 154.033,51.348 154.297,51.563 154.297 C 51.777 154.297,51.953 154.033,51.953 153.711 C 51.953 153.389,51.777 153.125,51.563 153.125 C 51.348 153.125,51.172 153.389,51.172 153.711 M51.680 170.703 C 51.680 171.885,51.753 172.368,51.842 171.777 C 51.932 171.187,51.932 170.220,51.842 169.629 C 51.753 169.038,51.680 169.521,51.680 170.703 M51.669 180.078 C 51.669 181.045,51.745 181.440,51.838 180.957 C 51.931 180.474,51.931 179.683,51.838 179.199 C 51.745 178.716,51.669 179.111,51.669 180.078 M51.680 236.328 C 51.680 237.510,51.753 237.993,51.842 237.402 C 51.932 236.812,51.932 235.845,51.842 235.254 C 51.753 234.663,51.680 235.146,51.680 236.328 M348.181 244.336 C 348.182 246.055,348.251 246.709,348.333 245.790 C 348.416 244.872,348.415 243.465,348.331 242.665 C 348.247 241.865,348.179 242.617,348.181 244.336 M348.219 258.594 C 348.219 264.717,348.273 267.222,348.339 264.160 C 348.405 261.099,348.405 256.089,348.339 253.027 C 348.273 249.966,348.219 252.471,348.219 258.594 M323.026 269.434 L 321.680 270.898 323.145 269.552 C 324.508 268.299,324.789 267.969,324.491 267.969 C 324.425 267.969,323.766 268.628,323.026 269.434 M347.183 274.815 C 347.062 275.239,346.845 275.938,346.699 276.367 C 346.554 276.797,346.721 276.655,347.070 276.051 C 347.420 275.447,347.638 274.749,347.554 274.498 C 347.471 274.248,347.304 274.391,347.183 274.815 M56.641 280.489 C 57.393 281.133,58.359 281.841,58.789 282.063 C 59.336 282.345,59.277 282.216,58.594 281.633 C 58.057 281.175,57.220 280.462,56.735 280.048 C 56.250 279.635,55.723 279.302,55.563 279.307 C 55.404 279.313,55.889 279.845,56.641 280.489 M305.371 280.302 C 303.911 281.094,304.000 281.424,305.469 280.664 C 306.113 280.331,306.641 279.975,306.641 279.873 C 306.641 279.621,306.599 279.636,305.371 280.302 M59.766 282.622 C 59.766 282.714,60.688 283.375,61.816 284.092 C 64.902 286.054,64.992 286.102,64.717 285.658 C 64.447 285.221,59.766 282.351,59.766 282.622 M65.831 286.464 C 67.800 287.807,68.750 288.352,68.750 288.136 C 68.750 287.860,65.777 285.938,65.351 285.938 C 65.191 285.938,65.407 286.174,65.831 286.464 M199.707 340.894 C 200.083 340.993,200.698 340.993,201.074 340.894 C 201.450 340.796,201.143 340.716,200.391 340.716 C 199.639 340.716,199.331 340.796,199.707 340.894 M210.352 360.580 C 208.150 361.843,208.237 362.130,210.465 360.953 C 212.329 359.967,213.189 359.377,212.695 359.423 C 212.480 359.443,211.426 359.963,210.352 360.580 M197.754 363.551 C 198.130 363.649,198.745 363.649,199.121 363.551 C 199.497 363.452,199.189 363.372,198.438 363.372 C 197.686 363.372,197.378 363.452,197.754 363.551 " stroke="none" fill="#155485" fill-rule="evenodd"></path></g></svg>